
<svg height="400" viewBox="0 0 400 400" width="400" xmlns="http://www.w3.org/2000/svg" xmlns:xlink="http://www.w3.org/1999/xlink"><defs><path id="a" d="m245.310929 133.391547-21.307854 161.836534c-1.492785 11.33794-5.958674 22.073745-12.937426 31.120507-11.235137-7.611882-44.366017-13.127343-83.488549-13.127343-39.1226602 0-72.2536296 5.515497-83.4890665 13.127167-6.9782347-9.046586-11.4441228-19.782391-12.9369079-31.120331l-21.30785398-161.836534 26.46370638 5.254574 5.0975822.685444c7.3991124 41.282753 43.1655596 72.593165 86.1725398 72.593165 43.00698 0 78.773428-31.310412 86.17254-72.593165l5.097582-.685444z"></path><mask id="b" fill="#fff"><use fill="#fff" fill-rule="evenodd" xlink:href="#a"></use></mask></defs><g fill="none" fill-rule="evenodd" transform="translate(76.5 36.5)"><path d="m9.84327162 266.659944 135.07530638-144.774081 100.392351 144.774081-117.733829 10.509149z" fill="#ce5308" transform="matrix(1 0 0 -1 0 399.054956)"></path><path d="m55.1257438 81.5858696h5.0107723c3.9366857 0 7.128 3.1913143 7.128 7.128v120.6114064c0 3.936685-3.1913143 7.128-7.128 7.128h-5.0107723c-3.9366857 0-7.128-3.191315-7.128-7.128v-120.6114064c0-3.9366857 3.1913143-7.128 7.128-7.128z" fill="#e6ae66" transform="matrix(.9961947 -.08715574 .08715574 .9961947 -12.768608 5.589948)"></path><path d="m65.7253894 63.3305569h5.0107722c3.9366857 0 7.128 3.1913143 7.128 7.128v120.6114061c0 3.936686-3.1913143 7.128-7.128 7.128h-5.0107722c-3.9366857 0-7.128-3.191314-7.128-7.128v-120.6114061c0-3.9366857 3.1913143-7.128 7.128-7.128z" fill="#d08b41" transform="matrix(.99939083 .0348995 -.0348995 .99939083 4.605171 -2.301562)"></path><path d="m116.197958 115.64178h5.010773c3.936685 0 7.128 3.191314 7.128 7.128v120.611406c0 3.936686-3.191315 7.128-7.128 7.128h-5.010773c-3.936685 0-7.128-3.191314-7.128-7.128v-120.611406c0-3.936686 3.191315-7.128 7.128-7.128z" fill="#d08b41" transform="matrix(.99254615 .12186934 -.12186934 .99254615 23.196086 -13.101682)"></path><path d="m24.0616647 67.9592746h5.0107722c3.9366857 0 7.128 3.1913143 7.128 7.128v120.6114064c0 3.936685-3.1913143 7.128-7.128 7.128h-5.0107722c-3.9366857 0-7.128-3.191315-7.128-7.128v-120.6114064c0-3.9366857 3.1913143-7.128 7.128-7.128z" fill="#d08b41" transform="matrix(.97029573 -.2419219 .2419219 .97029573 -31.965371 10.448901)"></path><rect fill="#f8dc85" height="121.73097" rx="7.128" width="19.266772" x="69.891803" y="92.291317"></rect><path d="m136.261697 81.4920961h5.010772c3.936686 0 7.128 3.1913143 7.128 7.128v120.6114059c0 3.936686-3.191314 7.128-7.128 7.128h-5.010772c-3.936686 0-7.128-3.191314-7.128-7.128v-120.6114059c0-3.9366857 3.191314-7.128 7.128-7.128z" fill="#e6ae66" transform="matrix(.98768834 .15643447 -.15643447 .98768834 25.005581 -19.874431)"></path><path d="m39.9214063 85.6453507h5.0107723c3.9366857 0 7.128 3.1913143 7.128 7.128v120.6114063c0 3.936685-3.1913143 7.128-7.128 7.128h-5.0107723c-3.9366857 0-7.128-3.191315-7.128-7.128v-120.6114063c0-3.9366857 3.1913143-7.128 7.128-7.128z" fill="#f8dc85" transform="matrix(.9781476 -.20791169 .20791169 .9781476 -30.899798 12.166171)"></path><path d="m199.499295 1.62178218h5.010773c3.936685 0 7.128 3.1913143 7.128 7.128v120.61140582c0 3.936686-3.191315 7.128-7.128 7.128h-5.010773c-3.936685 0-7.128-3.191314-7.128-7.128v-120.61140582c0-3.9366857 3.191315-7.128 7.128-7.128z" fill="#f8dc85" transform="matrix(-.98480775 -.17364818 -.17364818 .98480775 412.931816 36.126853)"></path><path d="m156.948872 18.6666757h5.010773c3.936685 0 7.128 3.1913143 7.128 7.128v120.6114063c0 3.936685-3.191315 7.128-7.128 7.128h-5.010773c-3.936685 0-7.128-3.191315-7.128-7.128v-120.6114063c0-3.9366857 3.191315-7.128 7.128-7.128z" fill="#d08b41" transform="matrix(-.99939083 .0348995 .0348995 .99939083 315.806521 -5.512423)"></path><path d="m124.5088 115.64178h5.010772c3.936686 0 7.128 3.191314 7.128 7.128v120.611406c0 3.936686-3.191314 7.128-7.128 7.128h-5.010772c-3.936686 0-7.128-3.191314-7.128-7.128v-120.611406c0-3.936686 3.191314-7.128 7.128-7.128z" fill="#d08b41" transform="matrix(-.99254615 .12186934 .12186934 .99254615 230.770339 -14.114519)"></path><path d="m216.645093 67.9592746h5.010773c3.936685 0 7.128 3.1913143 7.128 7.128v120.6114064c0 3.936685-3.191315 7.128-7.128 7.128h-5.010773c-3.936685 0-7.128-3.191315-7.128-7.128v-120.6114064c0-3.9366857 3.191315-7.128 7.128-7.128z" fill="#f8dc85" transform="matrix(-.97029573 -.2419219 -.2419219 .97029573 464.54578 57.03905)"></path><g fill="#e6ae66"><rect height="121.73097" rx="7.128" transform="matrix(-1 0 0 1 332.384682 0)" width="19.266772" x="156.558955" y="92.291317"></rect><path d="m114.073409 50.5452914h5.010772c3.936686 0 7.128 3.1913143 7.128 7.128v120.6114056c0 3.936686-3.191314 7.128-7.128 7.128h-5.010772c-3.936686 0-7.128-3.191314-7.128-7.128v-120.6114056c0-3.9366857 3.191314-7.128 7.128-7.128z" transform="matrix(-.98768834 .15643447 .15643447 .98768834 213.266331 -16.784424)"></path><path d="m200.785352 85.6453507h5.010772c3.936686 0 7.128 3.1913143 7.128 7.128v120.6114063c0 3.936685-3.191314 7.128-7.128 7.128h-5.010772c-3.936686 0-7.128-3.191315-7.128-7.128v-120.6114063c0-3.9366857 3.191314-7.128 7.128-7.128z" transform="matrix(-.9781476 -.20791169 -.20791169 .9781476 433.966011 45.611666)"></path></g><path d="m161.93543 112.237553h5.010772c3.936686 0 7.128 3.191314 7.128 7.128v120.611406c0 3.936685-3.191314 7.128-7.128 7.128h-5.010772c-3.936686 0-7.128-3.191315-7.128-7.128v-120.611406c0-3.936686 3.191314-7.128 7.128-7.128z" fill="#e8be5d" transform="matrix(-.9961947 -.08715574 -.08715574 .9961947 343.915267 15.015665)"></path><path d="m151.335785 93.98224h5.010772c3.936686 0 7.128 3.1913144 7.128 7.128v120.611406c0 3.936686-3.191314 7.128-7.128 7.128h-5.010772c-3.936686 0-7.128-3.191314-7.128-7.128v-120.611406c0-3.9366856 3.191314-7.128 7.128-7.128z" fill="#d08b41" transform="matrix(-.99939083 .0348995 .0348995 .99939083 301.955291 -5.270649)"></path><path d="m112.628303 146.48101h5.010772c3.936686 0 7.128 3.191314 7.128 7.128v120.611406c0 3.936686-3.191314 7.128-7.128 7.128h-5.010772c-3.936686 0-7.128-3.191314-7.128-7.128v-120.611406c0-3.936686 3.191314-7.128 7.128-7.128z" fill="#f8dc85" transform="matrix(-.99254615 .12186934 .12186934 .99254615 203.339543 -12.436779)"></path><path d="m192.999509 98.6109578h5.010773c3.936685 0 7.128 3.1913142 7.128 7.1280002v120.611406c0 3.936685-3.191315 7.128-7.128 7.128h-5.010773c-3.936685 0-7.128-3.191315-7.128-7.128v-120.611406c0-3.936686 3.191315-7.1280002 7.128-7.1280002z" fill="#d08b41" transform="matrix(-.97029573 -.2419219 -.2419219 .97029573 425.372298 52.229151)"></path><rect fill="#f8dc85" height="121.73097" rx="7.128" transform="matrix(-1 0 0 1 285.093514 0)" width="19.266772" x="132.913371" y="122.943001"></rect><path d="m92.5645647 112.331326h5.0107723c3.936686 0 7.128 3.191315 7.128 7.128v120.611406c0 3.936686-3.191314 7.128-7.128 7.128h-5.0107723c-3.9366857 0-7.128-3.191314-7.128-7.128v-120.611406c0-3.936685 3.1913143-7.128 7.128-7.128z" fill="#e8be5d" transform="matrix(-.98768834 .15643447 .15643447 .98768834 160.847987 -12.659011)"></path><path d="m177.139768 116.297034h5.010772c3.936686 0 7.128 3.191314 7.128 7.128v120.611406c0 3.936686-3.191314 7.128-7.128 7.128h-5.010772c-3.936686 0-7.128-3.191314-7.128-7.128v-120.611406c0-3.936686 3.191314-7.128 7.128-7.128z" fill="#f8dc85" transform="matrix(-.9781476 -.20791169 -.20791169 .9781476 393.564399 41.365285)"></path><use fill="#f79f22" xlink:href="#a"></use><path d="m30.9901707 277.792281c16.0924037-10.854463 40.327147-2.712277 54.2312317 17.901377 5.7745401 8.561108 8.8870799 17.968515 9.3999463 26.820165.7068616.923491 1.3923985 1.876829 2.0545091 2.858449 13.9040842 20.613653 12.3748942 46.133832-3.7175096 56.988296-16.0924037 10.854463-40.327147 2.712276-54.2312317-17.901377-5.7744382-8.560957-8.88697-17.968183-9.3999191-26.819696-.7067717-.923797-1.3923692-1.877215-2.0545364-2.858918-13.9040846-20.613653-12.374894-46.133833 3.7175097-56.988296zm63.6039225 50.313308-.0266114.359243c-.7896609 10.058509-5.1783113 18.898435-13.0635891 24.217122-14.0346107 9.466464-34.2623217 4.483991-48.4291932-10.618984 1.1241983 6.87431 3.8861385 13.977166 8.3414537 20.582443 12.9921517 19.261657 35.3017284 26.757042 49.7284168 17.026118 14.197894-9.576601 15.786478-32.482133 3.4495232-51.565942zm-3.1636165-4.411202c-13.209529-16.644279-33.652282-22.653669-47.1720724-13.534455-8.119006 5.476338-12.1146716 15.311339-11.7408648 26.297865 13.2100317 16.644944 33.6527846 22.654334 47.172575 13.53512 8.0789456-5.449317 12.0751408-15.214391 11.7460791-26.135322zm-8.8981111-26.186951c-12.9921516-19.261657-35.3017283-26.757042-49.7284168-17.026118-14.197894 9.5766-15.7864781 32.482133-3.4495231 51.565942.7127068-10.207659 5.1114409-19.194624 13.0902005-24.576365 14.0346106-9.466464 34.2623217-4.483991 48.4291932 10.618984-1.12412-6.874109-3.8860753-13.977073-8.3414538-20.582443zm33.0427684-230.7913909 3.146353.7881447c-6.159883 24.5908725-6.159883 44.0848822-.07919 58.4814602.150908.357288.313088.720373.487666 1.091392l.366019.75325.401078.778206.438136.806961.477196.839514c.082898.142843.167507.287201.253869.433153l.539532.895468.58359.93752.629647.983369.677704 1.033017c.117066.176518.236218.355264.357498.536315l1.150078 1.693862 2.376755 3.395144 4.958685 6.974341 2.126183 3.034568 1.450508 2.109046.922135 1.362445.901024 1.349901c9.910468 14.953993 16.231798 28.384283 19.203466 43.328748 3.131452 15.748018 2.102694 32.079175-3.760455 49.336836 4.813423-2.002695 9.84545-2.933069 14.732131-2.83886 3.230405-24.131628 18.015468-41.168277 44.282504-50.914662l2.278055-.826283 2.272274-.832856c.750723-.278178 1.494744-.556912 2.232064-.836203l2.191856-.839535 2.15165-.842855c.710516-.281503 1.414331-.563557 2.111446-.84616l2.071246-.849453 2.031047-.852732 1.99085-.855998c.328458-.142938.655242-.286011.980352-.429219l1.930559-.860871c1.592054-.718741 3.142241-1.440849 4.650569-2.166288l1.789902-.872124c.294968-.145619.588262-.291372.879882-.437257l1.729629-.876896c.284923-.146413.568171-.292959.849746-.439636l1.66936-.881638c1.649272-.883212 3.238279-1.771142 4.767033-2.663727l1.50867-.894136c13.149175-7.911867 21.597153-16.185476 25.351015-24.7791l.207469-.486773 2.995167 1.244863c-3.359035 8.081912-10.383406 15.764605-21.068328 23.076278l-1.383918.931392c-.701901.46469-1.418715.927874-2.150441 1.389558l-1.483334.921371c-2.50536 1.532294-5.176399 3.047982-8.01307 4.547336l-1.721878.897655-1.761628.893747c-.296917.148633-.59549.297104-.895719.445413l-1.821248.887911c-.306853.147662-.615362.295163-.925528.442502l-1.880863.882104c-.316789.146696-.635234.293231-.955334.439606l-1.940474.876326-1.98021.872491-2.019946.868669-2.059679.864859c-.693182.287653-1.392985.574674-2.09941.861063l-2.139138.85728c-.719667.285131-1.445955.569633-2.178864.85351l-2.218589.849752c-.373075.141313-.747805.28247-1.12419.423471l-2.278171.844141c-.76601.280759-1.53864.560897-2.317889.840416-25.68954 9.214927-40.088141 25.31056-43.269493 48.48663 8.786497 1.002524 16.814922 5.394827 21.867893 12.886164 8.444726 12.519822 5.750801 29.502574-5.462223 40.833452 14.437636 14.914305 32.961532 18.743617 55.75819 11.602777l.957643-.305608 1.002483 3.084759c-24.498571 7.961527-44.595139 3.860937-60.090841-12.18012-1.100346.938939-2.268207 1.827803-3.50063 2.659082-5.541031 3.737473-11.672429 5.828851-17.725392 6.361951-2.189023 5.258811-5.671024 9.742643-10.422804 12.947758-16.092404 10.854464-40.327147 2.712277-54.2312315-17.901376-13.9040847-20.613653-12.3748941-46.133833 3.7175095-56.988296 11.923577-8.042555 28.317288-5.655973 41.666732 4.505446.556884-.421622 1.129707-.830977 1.717201-1.227247.856783-.577907 1.727681-1.116458 2.610221-1.615977 6.641428-17.867427 7.952295-34.624176 4.74729-50.742094-2.876709-14.466923-9.028514-27.53704-18.725896-42.169505l-.890449-1.334038-.912077-1.347535-.946272-1.379998-.993037-1.431424-3.676367-5.198558-3.997693-5.632715-.451621-.646207-1.270287-1.842231-.779053-1.153049-.727305-1.097835-.677696-1.046794-.630225-.999929c-.202401-.325963-.397246-.64481-.584893-.957238l-.541702-.91872-.500649-.884377c-.080139-.144766-.158657-.288275-.235598-.430614l-.443079-.84069-.407375-.816781c-.260156-.53748-.497935-1.061804-.716188-1.578538-6.290247-14.892716-6.393366-34.6577628-.384716-59.2956812zm26.540722 187.9462389c-12.197212-8.991108-26.814372-10.999243-37.281736-3.938917-14.4266881 9.730925-15.8344025 33.223825-2.842251 52.485482 12.992152 19.261657 35.301729 26.757042 49.728417 17.026118 3.769584-2.542617 6.650314-6.024814 8.617556-10.125604-10.08546-.146116-19.569776-4.653125-25.268945-13.102491-8.788359-13.029278-5.513115-30.892089 6.873207-42.187924zm2.585317 2.042131-.167409.146182c-11.588312 10.240528-14.708235 26.582224-6.775831 38.342497 5.302336 7.861035 14.352571 11.910181 23.903396 11.667783 3.861018-11.30558 1.634104-26.164341-7.098792-39.111392-2.889359-4.28365-6.239543-7.985359-9.861364-11.04507zm22.853736-8.647129c-5.302401-.053563-10.80047 1.222174-15.930673 3.91045-.615703 1.610292-1.273663 3.227413-1.973905 4.852958 2.75765 2.682978 5.318656 5.730939 7.601243 9.115013 8.94003 13.254141 11.499611 28.536745 7.910023 40.645095 5.026889-.674748 10.083953-2.537338 14.706885-5.655544 1.096447-.739563 2.136554-1.528228 3.118853-2.359925-4.659673-5.317428-8.876562-11.778144-12.646097-19.378038l-.58616-1.198055-.040796-.197068c-2.175238-10.507741-2.917428-20.147513-2.229702-28.910826zm3.23014.199666-.009605.092261c-.74229 8.321001-.118707 17.505566 1.867619 27.562184l.2071 1.02442.389334.79518c3.633378 7.329549 7.670858 13.539185 12.118445 18.632585 10.088283-10.282103 12.474054-25.505611 4.970659-36.629851-4.486754-6.651887-11.657112-10.574353-19.543552-11.476779zm42.28682-22.996606c15.971726-10.773066 36.84852-7.869554 46.613363 6.607422s4.636349 34.921276-11.335378 45.694342-36.84852 7.869553-46.613363-6.607422c-9.764844-14.476976-4.636349-34.921277 11.335378-45.694342zm43.924326 8.4212c-8.716928-12.923377-27.563183-15.544485-42.110548-5.732164-14.547366 9.812322-19.177048 28.26815-10.46012 41.191527 8.716928 12.923378 27.563183 15.544486 42.110549 5.732164 14.547365-9.812322 19.177047-28.26815 10.460119-41.191527zm-241.4697422-29.09015c15.9717268-10.773065 36.8485201-7.869553 46.6133634 6.607423 9.7648433 14.476975 4.6363489 34.921276-11.335378 45.694341-15.9717268 10.773066-36.84852 7.869554-46.61336332-6.607422-9.76484332-14.476975-4.63634884-34.921276 11.33537792-45.694342zm43.9243267 8.421201c-8.716928-12.923377-27.5631832-15.544486-42.1105485-5.732164-14.54736532 9.812322-19.1770474 28.26815-10.4601194 41.191527s27.5631831 15.544486 42.1105485 5.732164c14.5473653-9.812322 19.1770474-28.26815 10.4601194-41.191527zm25.5027901-68.74138c17.1168874-3.018169 34.6120824 17.443997 39.5337894 45.356383 4.921706 27.912386-4.519926 53.124242-21.636813 56.142411-17.116888 3.018169-34.6120828-17.443998-39.5337895-45.356383-4.9217068-27.912386 4.5199256-53.124242 21.6368131-56.142411zm36.3395014 45.919622c-4.651451-26.379694-20.873715-45.353056-35.7762623-42.725335-14.902547 2.627721-23.6572167 26.00519-19.0057649 52.384885 4.6514518 26.379694 20.8737157 45.353056 35.7762632 42.725334 14.902547-2.627721 23.657216-26.00519 19.005764-52.384884zm203.724261-35.21217c15.971727-10.773066 36.84852-7.869553 46.613363 6.607422 9.764843 14.476976 4.636349 34.921276-11.335378 45.694342s-36.84852 7.869553-46.613363-6.607422c-9.764844-14.476976-4.636349-34.921276 11.335378-45.694342zm43.924326 8.4212c-8.716928-12.923377-27.563183-15.544485-42.110548-5.732164-14.547365 9.812322-19.177048 28.26815-10.46012 41.191527 8.716928 12.923378 27.563184 15.544486 42.110549 5.732164s19.177047-28.26815 10.460119-41.191527zm-225.394084-56.099368c10.82702-7.3029165 28.534013.685265 39.789532 17.372257 4.114921 6.100621 6.828826 12.5652 8.087076 18.669074l.206923 1.073263c1.822001 10.157619-.456229 19.181655-7.092144 23.657636-10.82702 7.302917-28.534014-.685264-39.789532-17.372256-11.255519-16.686993-12.028875-36.097057-1.201855-43.399974zm37.100495 19.186035c-10.381677-15.391469-26.287465-22.56707-35.286717-16.496998s-8.304564 23.505689 2.077114 38.897159c10.381677 15.391469 26.287465 22.56707 35.286716 16.496998 6.309821-4.256028 7.853998-14.099477 4.634929-24.908128l-.331991-1.066095-.362713-1.071344c-1.386269-3.936687-3.392086-7.959496-6.017338-11.851592zm-78.769717-61.9802773c0 10.9228216-5.2742405 27.6061438-12.8916219 43.8681723l-1.0066187 2.118237c-8.8350171 18.328541-20.5014422 35.775257-30.7651182 43.410156-12.4987995 9.297554-25.2256625 7.109588-37.7520715-6.203098l-.9162026-.993948c-.9158324-1.01379-1.8305356-2.087095-2.7439417-3.219773l-.9129676-1.152463-.4561479-.591066 2.5760021-1.97102c13.1629881 17.203209 25.7110776 20.870722 38.2694062 11.528886 5.4822953-4.078146 11.4310751-11.178546 17.1147174-19.759743l1.1719028-1.796043c4.8651654-7.567339 9.4957928-16.156148 13.4231631-24.778882l.9288263-2.069602.9003814-2.067871c5.7569128-13.4289613 9.6198708-26.5559557 9.8094206-35.6318501l.0073054-.6900922zm-91.641273 4.7160266c10.8270196-7.302917 28.5340133.6852642 39.7895317 17.3722565 11.2555185 16.6869922 12.0288746 36.0970562 1.2018549 43.3999732s-28.5340133-.685264-39.7895318-17.372256c-11.25551846-16.6869928-12.0288745-36.0970568-1.2018548-43.3999737zm37.100495 19.1860347c-10.3816772-15.3914694-26.287465-22.5670701-35.2867169-16.496998-8.99925185 6.070072-8.3045638 23.505689 2.0771134 38.897158 10.3816773 15.39147 26.2874651 22.56707 35.2867169 16.496998 8.9992519-6.070072 8.3045639-23.505689-2.0771134-38.897158z" fill="#ffd394" fill-rule="nonzero" mask="url(#b)"></path></g></svg> 